<svg width="113" height="79" viewBox="0 0 113 79" fill="none" xmlns="http://www.w3.org/2000/svg">
<path d="M22.8052 30.9999C22.8052 40.9411 30.8641 48.9999 40.8052 48.9999L67.8052 48.9999C70.5666 48.9999 72.8052 46.7614 72.8052 43.9999L72.8052 9.99994C72.8052 4.47709 68.3281 -6.1518e-05 62.8052 -6.10352e-05L27.8052 -5.79754e-05C25.0438 -5.77339e-05 22.8052 2.23852 22.8052 4.99994L22.8052 30.9999Z" fill="#FFF1DA"/>
<path d="M71.3891 44.9413C70.0308 45.2455 68.7078 45.8091 67.5022 46.5965C64.3614 48.5978 62.5341 51.4546 63.4211 52.9767C64.308 54.4988 67.5731 54.1095 70.7139 52.1082C71.9356 51.3486 73.021 50.3778 73.9032 49.2559C74.3126 48.7138 74.3861 48.0383 74.0908 47.5334L72.9386 45.556C72.6455 45.0495 72.0374 44.8086 71.3891 44.9413Z" fill="#D5D6DB"/>
<path d="M63.5021 17.9482C62.5172 18.169 61.5577 18.5778 60.6835 19.1489C58.4066 20.5996 57.0809 22.671 57.7235 23.7738C58.3661 24.8766 60.7345 24.5941 63.0111 23.1435C63.897 22.5924 64.684 21.8881 65.3238 21.0745C65.6202 20.6815 65.6734 20.1922 65.4594 19.8261L64.6251 18.3943C64.4128 18.0272 63.9722 17.8521 63.5021 17.9482Z" fill="#D5D6DB"/>
<path d="M50.6879 19.0787C50.4687 19.0542 50.2349 19.1126 50.0321 19.2421L44.684 22.6503C44.2366 22.9346 44.0576 23.4819 44.2845 23.8731C44.3364 23.9627 44.4074 24.0393 44.4936 24.0983L57.6753 33.1832L75.5088 21.8185L50.6879 19.0787Z" fill="#029BC5"/>
<path d="M107.065 17.794L58.5329 48.3462L29.8202 59.7716L15.177 62.6823L13.5661 59.9451L94.4612 9.99847C96.872 8.50359 99.5577 7.58604 102.246 7.33895C103.424 7.23706 104.587 7.27622 105.708 7.45501C106.702 7.60572 107.645 7.89643 108.509 8.31852C109.472 8.79676 111.307 8.85191 111.901 9.80473C111.903 9.8032 113.305 14.1776 107.065 17.794Z" fill="#E1E6E9"/>
<path d="M59.1762 44.3036L38.181 77.7735C37.9187 78.2437 38.0744 78.7701 38.5283 78.9494C38.8068 79.0595 39.1478 79.016 39.4342 78.834L44.7782 75.4438C45.806 74.7915 46.7161 73.9629 47.4523 73.0093L88.1687 25.1404L59.1762 44.3036Z" fill="#029BC5"/>
<path d="M6.19662 43.1861C5.8464 43.0664 5.42961 43.1285 5.07778 43.3526L0.66029 46.166C0.0583745 46.549 -0.181476 47.2855 0.124386 47.8111C0.182661 47.911 0.258361 47.999 0.349097 48.0714L12.7259 57.9838L25.7389 49.8557L6.19662 43.1861Z" fill="#029BC5"/>
<path d="M16.8742 59.7707L10.2128 69.1002C10.1151 69.2343 10.1381 69.4026 10.264 69.4759C10.3549 69.5288 10.4789 69.5193 10.5797 69.4517L14.7079 66.8357C14.74 66.8154 14.769 66.79 14.793 66.7609L24.5266 54.9261L16.8742 59.7707Z" fill="#029BC5"/>
<path d="M104.911 7.85725C103.757 7.67182 102.559 7.63222 101.346 7.73883C100.165 9.38991 99.4108 11.2446 99.1574 13.118C99.1388 13.4944 99.4422 13.7652 99.8351 13.723C99.9573 13.7098 100.079 13.6669 100.188 13.5981L107.796 8.75383C106.906 8.31523 105.935 8.01339 104.911 7.85725Z" fill="#029BC5"/>
<path d="M88.3321 16.7654L93.2991 13.6284L97.9258 21.4974L92.9587 24.6344L88.3321 16.7654Z" fill="#D5D6DB"/>
<path d="M85.2067 19.8776C84.6081 20.2567 84.3689 20.9855 84.6727 21.5052L85.1651 22.3472C85.4889 22.8537 86.2282 22.9427 86.8165 22.546C87.3763 22.1682 87.6017 21.4816 87.3319 20.9745L86.8396 20.1325C86.536 19.6133 85.8052 19.499 85.2067 19.8776Z" fill="#3A556A"/>
<path d="M80.7422 22.65C80.1437 23.0292 79.9045 23.758 80.2083 24.2777L80.7006 25.1197C81.0245 25.6261 81.7638 25.7152 82.352 25.3185C82.9119 24.9407 83.1373 24.254 82.8675 23.747L82.3752 22.905C82.0713 22.3859 81.3405 22.2716 80.7422 22.65Z" fill="#3A556A"/>
<path d="M76.2764 25.4234C75.6785 25.803 75.4401 26.5309 75.7437 27.0502L76.236 27.8921C76.5599 28.3986 77.2992 28.4877 77.8874 28.091C78.4473 27.7132 78.6727 27.0265 78.4029 26.5195L77.9106 25.6776C77.6067 25.1579 76.8752 25.0441 76.2764 25.4234Z" fill="#3A556A"/>
<path d="M71.8121 28.1957C71.2142 28.5754 70.9758 29.3033 71.2794 29.8226L71.7718 30.6646C72.0956 31.171 72.8349 31.2601 73.4231 30.8634C73.983 30.4856 74.2084 29.7989 73.9386 29.2919L73.4463 28.4499C73.1422 27.9304 72.4106 27.8166 71.8121 28.1957Z" fill="#3A556A"/>
<path d="M67.3482 30.9684C66.7499 31.3482 66.5114 32.0765 66.8152 32.596L67.3078 33.4383C67.6115 33.9576 68.3427 34.0713 68.9411 33.6923C69.5395 33.3133 69.7784 32.5851 69.4747 32.0659L68.9821 31.2235C68.6792 30.7038 67.9482 30.5893 67.3494 30.9676L67.3482 30.9684Z" fill="#3A556A"/>
<path d="M62.8838 33.7409C62.2855 34.1207 62.047 34.8489 62.3508 35.3684L62.8434 36.2108C63.1471 36.73 63.8783 36.8437 64.4767 36.4648C65.0751 36.0858 65.314 35.3576 65.0103 34.8383L64.5177 33.996C64.2148 33.4762 63.4838 33.3617 62.885 33.7401L62.8838 33.7409Z" fill="#3A556A"/>
<path d="M58.4191 36.5134C57.8209 36.8932 57.5824 37.6214 57.8862 38.1409L58.3788 38.9832C58.6832 39.502 59.4148 39.6146 60.0125 39.2351C60.6093 38.8562 60.8477 38.1296 60.5454 37.611L60.0528 36.7687C59.7493 36.249 59.018 36.1347 58.4191 36.5134Z" fill="#3A556A"/>
<path d="M53.9546 39.2859C53.3563 39.6657 53.1178 40.3939 53.4216 40.9134L53.9142 41.7558C54.2186 42.2746 54.9502 42.3871 55.5479 42.0077C56.1447 41.6288 56.3831 40.9021 56.0808 40.3835L55.5882 39.5411C55.2847 39.0215 54.5534 38.9072 53.9546 39.2859Z" fill="#3A556A"/>
<path d="M49.4903 42.0583C48.892 42.4381 48.6535 43.1664 48.9573 43.6858L49.4499 44.5281C49.7543 45.0469 50.4859 45.1595 51.0836 44.78C51.6804 44.4012 51.9188 43.6745 51.6165 43.1559L51.1239 42.3136C50.8201 41.7941 50.0889 41.6798 49.4903 42.0583Z" fill="#3A556A"/>
<path d="M45.0244 44.8316C44.4261 45.2105 44.1872 45.9387 44.4908 46.458L44.9841 47.3014C45.2885 47.8202 46.0201 47.9328 46.6178 47.5533C47.2145 47.1745 47.4529 46.4478 47.1507 45.9291L46.6581 45.0868C46.3545 44.5672 45.6233 44.4528 45.0244 44.8316Z" fill="#3A556A"/>
<path d="M40.5613 47.6033C39.9629 47.9822 39.724 48.7104 40.0277 49.2297L40.5209 50.0731C40.8253 50.5918 41.5569 50.7044 42.1547 50.3249C42.7514 49.9461 42.9898 49.2195 42.6875 48.7008L42.1949 47.8585C41.8911 47.339 41.1599 47.2247 40.5613 47.6033Z" fill="#3A556A"/>
</svg>
